<svg width="297" height="50" viewBox="0 0 297 50" fill="none" xmlns="http://www.w3.org/2000/svg">
<path fill-rule="evenodd" clip-rule="evenodd" d="M78.0506 42.0729C82.1261 42.0729 85.1532 38.8709 85.1532 34.3876C85.1532 29.9047 82.1261 26.7031 78.0506 26.7031C74.0339 26.7031 70.9481 29.9047 70.9481 34.3876C70.9481 38.8709 74.0339 42.0729 78.0506 42.0729ZM93.7116 19.7747V49.0006H84.862V46.0318C83.2321 48.0121 80.0301 49.6999 76.1874 49.6999C68.2697 49.6999 62.1572 43.0627 62.1572 34.3876C62.1572 25.7142 68.2697 19.077 76.1874 19.077C80.0301 19.077 83.2321 20.7652 84.862 22.7447V19.7747H93.7116Z" fill="black"/>
<path fill-rule="evenodd" clip-rule="evenodd" d="M115.45 42.0729C119.526 42.0729 122.553 38.8709 122.553 34.3876C122.553 29.9047 119.526 26.7031 115.45 26.7031C111.434 26.7031 108.348 29.9047 108.348 34.3876C108.348 38.8709 111.434 42.0729 115.45 42.0729ZM131.111 1.88281V49.0006H122.262V46.0318C120.632 48.0121 117.43 49.6999 113.588 49.6999C105.669 49.6999 99.5566 43.0627 99.5566 34.3876C99.5566 25.7142 105.669 19.077 113.588 19.077C117.43 19.077 120.632 20.7652 122.262 22.7447V1.88281H131.111Z" fill="black"/>
<mask id="mask0" mask-type="alpha" maskUnits="userSpaceOnUse" x="138" y="1" width="30" height="49">
<path fill-rule="evenodd" clip-rule="evenodd" d="M138.152 1.40497H167.96V49.0008H138.152V1.40497Z" fill="white"/>
</mask>
<g mask="url(#mask0)">
<path fill-rule="evenodd" clip-rule="evenodd" d="M146.361 7.16898C146.361 3.96697 148.981 1.4048 152.183 1.4048C155.385 1.4048 158.005 3.96697 158.005 7.16898C158.005 10.4289 155.385 12.9328 152.183 12.9328C148.981 12.9328 146.361 10.4289 146.361 7.16898ZM138.152 41.899H148.632V26.8779H138.152V19.7749H157.481V41.899H167.96V49.0008H138.152V41.899Z" fill="black"/>
</g>
<path fill-rule="evenodd" clip-rule="evenodd" d="M201.59 41.8989H212.069V8.98469H201.59V1.88293H220.918V41.8989H231.398V49.0007H201.59V41.8989Z" fill="black"/>
<path fill-rule="evenodd" clip-rule="evenodd" d="M185.304 42.0156C181.345 42.0156 178.318 38.9294 178.318 34.3886C178.318 29.8474 181.345 26.7616 185.304 26.7616C188.11 26.7616 190.342 28.7386 190.876 30.8371H199.912C198.98 24.216 192.661 19.0775 185.304 19.0775C176.746 19.0775 169.585 25.5973 169.585 34.3886C169.585 43.1794 176.746 49.6997 185.304 49.6997C192.661 49.6997 198.98 44.5612 199.912 37.9397H190.876C190.342 40.0386 188.11 42.0156 185.304 42.0156Z" fill="black"/>
<path fill-rule="evenodd" clip-rule="evenodd" d="M241.051 31.1853C242.099 28.1004 244.661 26.2955 247.689 26.2955C251.414 26.2955 253.394 28.6823 253.802 31.1853H241.051ZM262.302 35.2613C262.302 25.8294 256.654 19.0767 247.63 19.0767C239.596 19.0767 232.552 25.5386 232.552 34.3874C232.552 43.1782 238.367 49.6996 247.863 49.6996C257.036 49.6996 261.267 43.0284 261.702 39.6457H253.865C253.148 41.445 251.262 42.804 247.863 42.804C244.023 42.804 241.044 40.1507 240.76 36.6588H262.243C262.302 36.1659 262.302 35.7266 262.302 35.2613Z" fill="black"/>
<path fill-rule="evenodd" clip-rule="evenodd" d="M57.7529 19.7749H34V49.0012H42.8492V26.8779H57.7529V19.7749Z" fill="black"/>
<path d="M261.512 8.848C261.192 10.176 260.008 11.152 258.904 11.152C257.8 11.152 257.144 10.496 257.144 9.328C257.144 7.552 258.232 5.84 259.944 5.84C261.224 5.84 261.944 6.992 261.608 8.464L261.512 8.848ZM261.096 10.624C261.016 11.6 261.672 12.16 262.552 12.16C263 12.16 263.448 12.016 263.784 11.712L263.88 10.72C263.608 10.928 263.272 11.088 262.856 11.088C262.488 11.088 262.216 10.848 262.344 10.336L263.848 5.008H262.552L262.088 6.56C261.864 5.568 260.984 4.816 259.816 4.816C257.272 4.816 255.768 7.216 255.768 9.408C255.768 11.024 256.744 12.192 258.392 12.192C259.64 12.192 260.6 11.488 261.096 10.624ZM267.662 1.92L265.15 12H266.478L268.99 1.92H267.662ZM271.265 8.16C271.601 6.816 272.801 5.856 273.921 5.856C275.073 5.856 275.729 6.512 275.729 7.68C275.729 9.456 274.641 11.168 272.881 11.168C271.521 11.168 270.817 9.952 271.169 8.528L271.265 8.16ZM270.721 10.464C270.945 11.44 271.825 12.192 273.041 12.192C275.617 12.192 277.105 9.776 277.105 7.584C277.105 5.968 276.177 4.816 274.481 4.816C273.297 4.816 272.225 5.568 271.713 6.448L272.065 5.008H270.753L268.337 14.688H269.665L270.721 10.464ZM280.469 8.192C280.805 6.768 282.021 5.904 283.093 5.904C284.213 5.904 284.629 6.656 284.341 7.84L283.301 12H284.629L285.701 7.696C286.101 6.048 285.317 4.816 283.573 4.816C282.453 4.816 281.477 5.536 280.901 6.4L282.021 1.92H280.693L278.181 12H279.509L280.469 8.192ZM293.184 8.848C292.864 10.176 291.68 11.152 290.576 11.152C289.472 11.152 288.816 10.496 288.816 9.328C288.816 7.552 289.904 5.84 291.616 5.84C292.896 5.84 293.616 6.992 293.28 8.464L293.184 8.848ZM292.768 10.624C292.688 11.6 293.344 12.16 294.224 12.16C294.672 12.16 295.12 12.016 295.456 11.712L295.552 10.72C295.28 10.928 294.944 11.088 294.528 11.088C294.16 11.088 293.888 10.848 294.016 10.336L295.52 5.008H294.224L293.76 6.56C293.536 5.568 292.656 4.816 291.488 4.816C288.944 4.816 287.44 7.216 287.44 9.408C287.44 11.024 288.416 12.192 290.064 12.192C291.312 12.192 292.272 11.488 292.768 10.624Z" fill="#5555FF"/>
<rect y="8" width="34" height="38" fill="white"/>
</svg>
