<svg width="226" height="48" viewBox="0 0 226 48" fill="none" xmlns="http://www.w3.org/2000/svg">
<path d="M87.3496 20.8547C87.3496 14.0059 87.3496 7.27785 87.3496 0.495453C90.2928 0.495453 93.1274 0.495453 96.0344 0.495453C96.0344 16.0171 96.0344 31.4984 96.0344 47.0462C93.1697 47.0462 90.3331 47.0462 87.3496 47.0462C87.3496 46.2107 87.3496 45.3652 87.3496 44.417C87.106 44.5358 87.0073 44.5579 86.9429 44.6183C83.6856 47.6481 79.8042 48.4091 75.6228 47.3925C70.1087 46.0537 66.791 42.3132 65.4281 36.94C64.045 31.4883 64.9751 26.4071 68.7055 22.0284C72.6292 17.4223 79.5505 16.1177 84.7224 19.0066C85.586 19.4878 86.3551 20.1461 87.3496 20.8547ZM87.6375 33.0324C87.6435 31.5447 87.4583 30.4153 87.0073 29.3604C85.9484 26.8822 84.0882 25.3683 81.3865 25.0764C78.8379 24.8006 76.6677 25.6481 75.1296 27.7398C73.3177 30.2039 73.1063 32.9398 74.1391 35.7603C75.5644 39.6518 80.0719 41.3972 83.754 39.4907C86.492 38.0755 87.4986 35.6234 87.6375 33.0324Z" fill="black"/>
<path d="M50.2735 20.8225C50.2735 19.9367 50.2735 19.1214 50.2735 18.2335C53.2248 18.2335 56.0573 18.2335 58.8919 18.2335C59.1153 18.9341 59.22 44.6726 58.9945 47.0643C56.1499 47.177 53.2892 47.0804 50.3198 47.1186C50.3198 46.1946 50.3198 45.3692 50.3198 44.3465C49.9614 44.6263 49.7581 44.7672 49.5749 44.9303C47.6201 46.6697 45.3069 47.5474 42.724 47.7387C35.6699 48.2561 30.5161 43.656 28.7727 38.2425C26.8763 32.35 27.6192 26.8258 31.7059 21.9982C35.5913 17.4122 42.4925 16.1298 47.6362 18.9784C48.53 19.4716 49.3192 20.1481 50.2735 20.8225ZM36.3845 32.6721C36.3845 33.5 36.7469 34.7899 37.1254 35.7744C38.1279 38.3694 40.0586 39.9155 42.8448 40.1933C45.5646 40.4651 47.7711 39.4565 49.3172 37.1574C51.2136 34.337 50.9922 30.0871 48.834 27.4599C46.2008 24.2509 41.0913 24.2006 38.3876 27.3532C37.0831 28.8752 36.3845 30.66 36.3845 32.6721Z" fill="black"/>
<path d="M185.036 40.0967C188.575 40.0967 191.919 40.0967 195.329 40.0967C195.329 42.438 195.329 44.7028 195.329 47.0401C185.571 47.0401 175.827 47.0401 166.084 47.0401C165.854 46.3275 165.81 41.2663 166.047 40.0806C169.393 40.0806 172.763 40.0806 176.196 40.0806C176.196 29.1853 176.196 18.4027 176.196 7.50533C172.8 7.50533 169.43 7.50533 166.094 7.50533C165.866 6.6759 165.808 1.97311 165.979 0.610192C166.686 0.398808 183.834 0.354518 185.036 0.584021C185.036 13.6898 185.036 26.8218 185.036 40.0967Z" fill="black"/>
<path d="M204.704 34.8745C204.889 36.9884 205.811 38.5486 207.404 39.6297C209.916 41.3348 212.634 41.3388 215.374 40.2235C216.433 39.7927 217.153 38.9371 217.663 37.9044C220.23 37.9044 222.766 37.9044 225.478 37.9044C225.18 38.7519 224.989 39.535 224.642 40.2417C223.084 43.4406 220.576 45.6511 217.254 46.8409C213.316 48.2521 209.322 48.1635 205.437 46.6556C201.108 44.9767 198.393 41.7636 197.169 37.3004C196.249 33.9444 196.293 30.6046 197.479 27.309C199.558 21.5271 205.022 17.6135 211.164 17.4968C214.858 17.4263 218.194 18.4027 220.999 20.893C223.449 23.0692 224.83 25.8555 225.534 29.0101C225.953 30.8844 226.104 32.7808 225.927 34.8363C224.522 34.9108 223.127 34.8624 221.735 34.8725C220.326 34.8806 218.917 34.8745 217.508 34.8745C216.099 34.8745 214.689 34.8745 213.28 34.8745C211.871 34.8745 210.462 34.8745 209.052 34.8745C207.651 34.8745 206.246 34.8745 204.704 34.8745ZM217.488 29.3967C217.488 29.2276 217.516 29.0927 217.484 28.9739C217.073 27.4097 216.231 26.1414 214.768 25.4065C212.432 24.2349 210.089 24.3275 207.861 25.6743C206.478 26.5098 205.545 27.7559 205.032 29.3987C209.228 29.3967 213.336 29.3967 217.488 29.3967Z" fill="black"/>
<path d="M164.108 29.0846C161.159 29.0846 158.282 29.0846 155.385 29.0846C155.307 28.9658 155.212 28.8631 155.168 28.7443C154.045 25.7346 150.453 24.1342 146.926 25.6904C144.963 26.556 143.741 28.1122 143.193 30.1697C142.445 32.9922 142.777 35.6435 144.705 37.9325C147.111 40.7872 151.637 40.9503 154.065 38.2768C154.594 37.6929 154.952 36.9541 155.45 36.1991C158.248 36.1991 161.151 36.1991 164.165 36.1991C164.127 36.5233 164.122 36.8132 164.056 37.091C163.062 41.2019 160.547 44.125 156.871 46.0637C150.652 49.3452 142.694 47.8736 138.004 42.6353C131.612 35.4966 133.478 24.2429 141.835 19.5401C148.158 15.9808 155.995 17.0901 160.875 22.2398C162.482 23.9349 163.525 25.9319 164.064 28.1988C164.102 28.3618 164.135 28.5269 164.151 28.694C164.161 28.7866 164.133 28.8853 164.108 29.0846Z" fill="black"/>
<path d="M113.303 25.171C109.911 25.171 106.567 25.171 103.151 25.171C103.151 22.8317 103.151 20.5689 103.151 18.2316C109.46 18.2316 115.751 18.2316 122.175 18.2316C122.189 18.602 122.22 18.9905 122.22 19.3771C122.222 25.8514 122.222 32.3258 122.222 38.8002C122.222 39.1908 122.222 39.5813 122.222 40.0464C125.702 40.0464 129.046 40.0464 132.364 40.0464C132.62 40.7993 132.68 45.7155 132.465 47.0462C122.733 47.0462 112.989 47.0462 103.252 47.0462C103.044 46.3033 102.98 41.7274 103.165 40.1148C104.266 40.0303 105.396 40.0866 106.521 40.0766C107.628 40.0665 108.735 40.0746 109.843 40.0746C110.98 40.0746 112.12 40.0746 113.239 40.0746C113.487 39.3418 113.549 26.5299 113.303 25.171Z" fill="black"/>
<path d="M23.4153 18.2275C23.4153 20.5608 23.4153 22.7995 23.4153 25.1811C21.7886 25.2092 20.1922 25.1911 18.5977 25.1931C16.955 25.1972 15.3122 25.1931 13.6695 25.1931C12.067 25.1931 10.4645 25.1931 8.74928 25.1931C8.74928 32.505 8.74928 39.7283 8.74928 46.9194C7.92387 47.1529 1.17167 47.1952 0 46.9959C0 37.4373 0 27.8666 0 18.2275C7.79503 18.2275 15.5518 18.2275 23.4153 18.2275Z" fill="black"/>
<path d="M116.976 11.3686C113.733 11.3747 111.202 8.8743 111.208 5.67334C111.214 2.53077 113.729 0.0263759 116.905 0.000204556C120.145 -0.0259668 122.701 2.46232 122.715 5.65321C122.731 8.87027 120.227 11.3626 116.976 11.3686Z" fill="black"/>
</svg>
