<svg width="360" height="163" viewBox="0 0 360 163" fill="none" xmlns="http://www.w3.org/2000/svg">
<path fill-rule="evenodd" clip-rule="evenodd" d="M5.15855 131.704C3.91399 132.351 3.7371 133.596 3.26498 136.017C1.84735 143.288 1.61193 150.608 2.6058 157.896C2.6936 158.539 2.80686 159.21 3.49277 159.762C4.98421 160.962 8.38576 161.102 11.2694 161.107C37.8595 161.155 64.4496 161.204 91.0397 161.251C101.882 161.271 112.723 161.29 123.564 161.358C136.385 161.437 149.203 161.582 162.026 161.678C178.318 161.801 194.613 161.843 210.908 161.885C220.39 161.91 229.872 161.935 239.353 161.96C278.368 161.358 319.09 162.61 349.22 161.569C351.478 161.491 353.924 161.367 355.569 160.61C357.469 159.737 357.666 158.323 357.739 157.053L358.985 135.441C359.039 134.486 359.019 133.427 357.697 132.72C354.107 130.8 340.965 131.069 336.218 130.929C328.007 130.688 319.766 130.82 311.551 130.943C269.46 130.506 314.55 131.011 249.905 130.506C179.33 129.955 107.821 129.652 37.045 130.681C29.3053 130.793 21.5618 130.923 13.8196 130.973C8.83242 131.005 6.43492 131.041 5.15855 131.704Z" stroke="black"/>
<path d="M170.693 150V148.95H168.215V142.23H170.693V141.18H164.491V142.23H166.983V148.95H164.491V150H170.693ZM176.296 146.472C178.48 146.472 179.726 145.478 179.726 143.826C179.726 142.174 178.48 141.18 176.296 141.18H173.272V150H174.49V146.472H176.296ZM174.49 145.45V142.202H176.268C177.78 142.202 178.522 142.734 178.522 143.826C178.522 144.918 177.78 145.45 176.268 145.45H174.49ZM183.314 150V146.01H186.842V144.96H183.314V142.216H188.004V141.18H182.096V150H183.314ZM189.828 148.152C190.416 149.412 191.886 150.168 193.496 150.168C195.316 150.168 196.716 149.216 196.716 147.606C196.716 146.094 195.722 145.492 194.434 145.184L192.88 144.82C191.97 144.61 191.382 144.33 191.382 143.504C191.382 142.552 192.096 142.02 193.174 142.02C194.35 142.02 195.232 142.678 195.638 143.602L196.422 142.748C195.876 141.754 194.756 141.012 193.174 141.012C191.438 141.012 190.234 142.062 190.234 143.56C190.234 144.946 191.186 145.604 192.348 145.87L194.098 146.29C195.036 146.514 195.582 146.836 195.582 147.634C195.582 148.656 194.686 149.16 193.496 149.16C192.292 149.16 191.116 148.502 190.57 147.228L189.828 148.152Z" fill="black"/>
<path d="M1.89957 74.2594C1.9922 75.8632 2.16351 77.6476 3.1647 78.6846C3.89814 79.4429 4.90948 79.6142 5.86118 79.7497C35.4934 83.9709 67.8956 85.7803 97.6128 81.7318C111.541 79.8338 125.942 81.5357 140.035 81.7832C155.693 82.0573 171.363 81.9561 187.008 81.0203C204.644 79.9646 222.35 77.8547 239.915 80.0798C245.448 80.7805 250.978 81.9125 256.536 81.6197C261.509 81.355 266.393 79.9537 271.334 79.2125C276.7 78.4075 282.12 78.3841 287.526 78.3623C305.996 78.286 324.469 78.2082 342.943 78.1319C346.423 78.1179 352.543 79.608 355.751 78.2066C359.33 76.6449 358.393 72.4797 358.572 67.5624C358.989 56.0587 359.102 44.5378 358.907 33.0247C358.807 27.1281 360.09 6.58857 355.386 2.74258C354.049 1.65106 352.343 1.58878 350.736 1.56387C338.755 1.38013 326.774 1.19639 314.791 1.09518C308.849 1.0438 302.904 1.01266 296.96 1.00332C246.222 0.914562 195.481 2.63358 144.789 3.06645C108.993 3.37164 73.1985 3.67683 37.4031 3.98202C29.0459 4.05364 20.69 4.10347 12.334 4.19689C5.24956 4.27475 3.0911 4.98633 2.29547 13.8819C0.510083 33.8017 0.760063 54.3007 1.89957 74.2594" stroke="black"/>
<path d="M11.7267 66.4773C11.6358 67.8195 11.5891 69.2808 12.6054 70.3677C14.0202 71.8794 16.8044 72.0096 19.2083 71.9995C51.2506 71.8592 83.2943 71.7179 115.335 71.5777C115.605 63.029 118.004 53.9181 116.518 45.4421C116.252 43.9273 115.326 42.4085 113.661 41.5961C110.095 39.8563 102.187 40.699 98.0798 40.5163C91.7936 40.2378 85.4957 40.0854 79.1978 40.0269C67.3406 39.9179 55.4808 40.151 43.6327 40.5365C33.5005 40.8655 23.4294 39.932 13.2739 40.5547C12.6716 40.592 11.9902 40.6626 11.6332 41.0431C11.4125 41.2772 11.3658 41.58 11.3269 41.8686C10.234 50.1892 12.2783 58.308 11.7267 66.4773" stroke="black"/>
<path d="M129.366 71.6038C139.595 72.7474 147.836 71.6829 157.697 70.8404C169.598 69.8235 182.751 71.4396 194.72 71.7792C201.453 71.9688 208.187 72.1604 214.92 72.35C219.267 72.4726 226.387 73.674 230.555 72.4655C233.755 71.5379 234.207 59.3325 234.534 56.578C235.066 52.0827 236.242 43.9174 230.37 41.0452C224.712 38.2805 214.975 41.8421 208.937 42.133C197.126 42.7018 185.285 42.8894 173.454 42.6937C165.932 42.569 158.446 42.2435 150.953 41.7691C145.247 41.4082 138.262 40.5454 132.819 42.3591C127.384 44.1708 129.342 49.5451 129.348 53.6085C129.353 59.6062 129.359 65.605 129.366 71.6038" stroke="black"/>
<path fill-rule="evenodd" clip-rule="evenodd" d="M3.23195 121.604C37.6835 122.747 65.4396 121.683 98.6508 120.84C142.5 121.779 183.028 121.44 223.341 121.779C246.018 121.969 268.694 122.16 291.371 122.35C306.011 122.473 329.994 123.674 344.031 122.466C354.806 121.538 356.33 109.333 357.431 106.578C359.222 102.083 363.183 93.9174 343.407 91.0452C324.351 88.2805 291.559 91.8421 271.223 92.133C231.443 92.7018 191.563 92.8894 151.717 92.6937C126.385 92.569 101.171 92.2435 75.935 91.7691C56.7175 91.4082 33.1937 90.5454 14.8629 92.3591C-3.44174 94.1708 3.15333 99.5451 3.1708 103.608C3.18827 109.606 3.21011 115.605 3.23195 121.604Z" stroke="black"/>
<path d="M245.712 69.1797C245.871 70.1007 246.078 71.073 246.876 71.7776C248.025 72.7954 250.001 72.9358 251.767 72.9782C258.705 73.1462 265.511 72.2757 272.331 72.6047C280.87 73.0158 289.355 72.8962 297.892 72.4871C314.559 71.6897 331.329 70.0691 348.008 71.6432C350.837 71.911 350.893 47.8835 350.983 45.7945C351.023 44.8587 351.045 43.8655 350.419 43.0592C349.772 42.2271 348.556 41.7548 347.369 41.406C341.187 39.5897 334.322 39.9365 327.707 40.2577C306.148 41.3062 284.542 41.7825 262.941 41.6906C256.733 41.6629 248.212 40.0275 245.677 45.4259C242.553 52.0793 244.532 62.3445 245.712 69.1797" stroke="black"/>
<path d="M35.6876 56.7855C35.6876 57.5835 35.0296 58.1015 34.2176 58.1015C33.4056 58.1015 32.7476 57.5835 32.7476 56.7855C32.7476 56.0015 33.4056 55.4835 34.2176 55.4835C35.0296 55.4835 35.6876 56.0015 35.6876 56.7855ZM37.9556 61.3915C37.9556 60.4115 37.1156 59.7535 35.7156 59.7535H33.2236C32.6216 59.7535 32.3696 59.5435 32.3696 59.2355C32.3696 58.9135 32.5936 58.7315 32.8456 58.6055C33.2376 58.7735 33.6996 58.8575 34.2176 58.8575C35.7576 58.8575 36.8636 58.0595 36.8636 56.7855C36.8636 56.4075 36.7656 56.0715 36.5696 55.7775C36.9336 55.4135 37.6896 55.1615 38.2636 55.2735L38.1376 54.2515C37.2276 54.1255 36.4716 54.7135 36.1216 55.2875C35.6456 54.9235 34.9876 54.7135 34.2176 54.7135C32.6636 54.7135 31.5576 55.5255 31.5576 56.7855C31.5576 57.4295 31.8376 57.9615 32.3276 58.3115C31.7676 58.5355 31.3756 58.9275 31.3756 59.4595C31.3756 59.9775 31.7116 60.3695 32.3276 60.5375C31.5016 60.6215 30.8856 61.1535 30.8856 61.7975C30.8856 62.9875 32.4536 63.5195 34.2596 63.5195C36.0516 63.5195 37.9556 62.9175 37.9556 61.3915ZM32.0056 61.6435C32.0056 61.0555 32.6636 60.7335 33.3496 60.7335H35.4496C36.2196 60.7335 36.8216 60.9435 36.8216 61.5315C36.8216 62.3715 35.6736 62.7495 34.2596 62.7495C33.0136 62.7495 32.0056 62.4135 32.0056 61.6435ZM42.4392 53.4255H44.0212V51.9275H42.4392V53.4255ZM46.4992 60.9995V60.1035H43.8812V54.8815H40.4092V55.7915H42.7332V60.1035H40.1292V60.9995H46.4992ZM47.8328 55.2035V56.0715H49.8208V58.5355C49.8208 60.2715 51.0528 61.1675 52.5788 61.1675C53.8248 61.1675 54.9028 60.3975 55.2528 59.5295L54.6368 58.6475C54.2028 59.6555 53.5448 60.1595 52.6348 60.1595C51.7808 60.1595 50.9548 59.5995 50.9548 58.4375V56.0715H54.3848V55.2035H50.9548V52.8375L49.8208 53.1875V55.2035H47.8328ZM69.344 55.7215C70.338 55.7215 70.8 56.3095 70.8 57.1215C70.8 57.4155 70.772 57.5835 70.73 57.6955L71.808 57.3875C71.85 57.2755 71.864 57.0935 71.864 56.8415C71.864 55.7635 71.108 54.7135 69.708 54.7135C68.364 54.7135 67.552 55.6655 67.258 56.6455V54.8815H66.096V60.9995H67.258V58.3955C67.258 56.9815 68.196 55.7215 69.344 55.7215ZM79.4276 58.9415C79.0916 59.8095 78.5036 60.2575 77.4816 60.2575C76.3476 60.2575 75.3956 59.4175 75.3956 58.0875H80.3516V57.7235C80.3516 56.1415 79.3716 54.7135 77.3976 54.7135C75.5916 54.7135 74.2476 56.0995 74.2476 58.0315C74.2476 59.9075 75.5916 61.1675 77.4396 61.1675C78.8676 61.1675 79.8476 60.5515 80.3236 59.4735L79.4276 58.9415ZM75.4376 57.3315C75.5776 56.4215 76.2916 55.6235 77.3976 55.6235C78.5596 55.6235 79.1756 56.4355 79.2316 57.3315H75.4376ZM84.3312 57.8075C84.3312 56.4775 85.2132 55.6235 86.2772 55.6235C87.5232 55.6235 88.2652 56.5475 88.2652 57.9475C88.2652 59.3475 87.5232 60.2715 86.2772 60.2715C85.2132 60.2715 84.3312 59.4175 84.3312 58.0735V57.8075ZM84.3732 59.6835C84.6812 60.5095 85.4232 61.1675 86.5712 61.1675C88.3912 61.1675 89.4692 59.7395 89.4692 57.9475C89.4692 56.1415 88.3912 54.7135 86.5712 54.7135C85.4232 54.7135 84.6812 55.3855 84.3732 56.2115V54.8815H83.2112V63.3515H84.3732V59.6835ZM97.8588 57.9475C97.8588 56.0435 96.4308 54.7135 94.5968 54.7135C92.7768 54.7135 91.3488 56.0435 91.3488 57.9475C91.3488 59.8375 92.7768 61.1675 94.5968 61.1675C96.4308 61.1675 97.8588 59.8375 97.8588 57.9475ZM92.5668 57.9475C92.5668 56.5615 93.3508 55.6375 94.5968 55.6375C95.8568 55.6375 96.6408 56.5615 96.6408 57.9475C96.6408 59.3195 95.8568 60.2435 94.5968 60.2435C93.3508 60.2435 92.5668 59.3195 92.5668 57.9475Z" fill="black"/>
<path d="M159.939 53.4255H161.521V51.9275H159.939V53.4255ZM163.999 60.9995V60.1035H161.381V54.8815H157.909V55.7915H160.233V60.1035H157.629V60.9995H163.999ZM165.977 59.7675C166.523 60.6355 167.783 61.1675 169.141 61.1675C170.695 61.1675 171.857 60.4535 171.857 59.3055C171.857 58.3255 171.115 57.8355 170.177 57.6395L168.469 57.2615C167.797 57.1075 167.475 56.8835 167.475 56.4355C167.475 55.9315 168.091 55.6235 168.875 55.6235C169.743 55.6235 170.499 55.9875 170.849 56.6175L171.633 55.9735C171.129 55.1895 170.163 54.7135 168.875 54.7135C167.461 54.7135 166.369 55.4415 166.369 56.5195C166.369 57.5555 167.167 58.0175 168.217 58.2415L169.715 58.5635C170.373 58.7035 170.737 58.9275 170.737 59.3895C170.737 60.0055 170.093 60.2715 169.127 60.2715C168.147 60.2715 167.139 59.8235 166.691 58.9975L165.977 59.7675ZM174.576 59.7675C175.122 60.6355 176.382 61.1675 177.74 61.1675C179.294 61.1675 180.456 60.4535 180.456 59.3055C180.456 58.3255 179.714 57.8355 178.776 57.6395L177.068 57.2615C176.396 57.1075 176.074 56.8835 176.074 56.4355C176.074 55.9315 176.69 55.6235 177.474 55.6235C178.342 55.6235 179.098 55.9875 179.448 56.6175L180.232 55.9735C179.728 55.1895 178.762 54.7135 177.474 54.7135C176.06 54.7135 174.968 55.4415 174.968 56.5195C174.968 57.5555 175.766 58.0175 176.816 58.2415L178.314 58.5635C178.972 58.7035 179.336 58.9275 179.336 59.3895C179.336 60.0055 178.692 60.2715 177.726 60.2715C176.746 60.2715 175.738 59.8235 175.29 58.9975L174.576 59.7675ZM187.908 58.1995C187.908 59.3895 187.138 60.2015 186.116 60.2015C185.108 60.2015 184.604 59.5575 184.604 58.5215V54.8815H183.442V58.6895C183.442 60.1035 184.1 61.1675 185.71 61.1675C186.788 61.1675 187.628 60.5235 187.908 59.7535V60.9995H189.07V54.8815H187.908V58.1995ZM196.928 58.9415C196.592 59.8095 196.004 60.2575 194.982 60.2575C193.848 60.2575 192.896 59.4175 192.896 58.0875H197.852V57.7235C197.852 56.1415 196.872 54.7135 194.898 54.7135C193.092 54.7135 191.748 56.0995 191.748 58.0315C191.748 59.9075 193.092 61.1675 194.94 61.1675C196.368 61.1675 197.348 60.5515 197.824 59.4735L196.928 58.9415ZM192.938 57.3315C193.078 56.4215 193.792 55.6235 194.898 55.6235C196.06 55.6235 196.676 56.4355 196.732 57.3315H192.938ZM200.375 59.7675C200.921 60.6355 202.181 61.1675 203.539 61.1675C205.093 61.1675 206.255 60.4535 206.255 59.3055C206.255 58.3255 205.513 57.8355 204.575 57.6395L202.867 57.2615C202.195 57.1075 201.873 56.8835 201.873 56.4355C201.873 55.9315 202.489 55.6235 203.273 55.6235C204.141 55.6235 204.897 55.9875 205.247 56.6175L206.031 55.9735C205.527 55.1895 204.561 54.7135 203.273 54.7135C201.859 54.7135 200.767 55.4415 200.767 56.5195C200.767 57.5555 201.565 58.0175 202.615 58.2415L204.113 58.5635C204.771 58.7035 205.135 58.9275 205.135 59.3895C205.135 60.0055 204.491 60.2715 203.525 60.2715C202.545 60.2715 201.537 59.8235 201.089 58.9975L200.375 59.7675Z" fill="black"/>
<path d="M142.846 105.722C143.84 105.722 144.302 106.31 144.302 107.122C144.302 107.416 144.274 107.584 144.232 107.696L145.31 107.388C145.352 107.276 145.366 107.094 145.366 106.842C145.366 105.764 144.61 104.714 143.21 104.714C141.866 104.714 141.054 105.666 140.76 106.646V104.882H139.598V111H140.76V108.396C140.76 106.982 141.698 105.722 142.846 105.722ZM149.024 106.786C149.22 106.17 149.85 105.638 150.816 105.638C151.698 105.638 152.006 106.086 152.006 106.506V107.024L150.13 107.458C148.702 107.78 147.736 108.256 147.736 109.362C147.736 110.44 148.548 111.126 149.682 111.126C150.802 111.126 151.712 110.552 152.02 109.782C152.076 110.538 152.72 111.14 153.532 111.14C153.882 111.14 154.204 111.042 154.54 110.804L154.47 109.936C154.288 110.104 154.008 110.216 153.756 110.216C153.434 110.216 153.098 110.02 153.098 109.53V106.548C153.098 105.316 152.23 104.714 150.844 104.714C149.402 104.714 148.408 105.442 147.988 106.408L149.024 106.786ZM152.006 108.536C152.006 109.432 151.04 110.244 149.962 110.244C149.262 110.244 148.898 109.824 148.898 109.278C148.898 108.606 149.486 108.368 150.41 108.144L152.006 107.766V108.536ZM161.165 108.074C161.165 109.418 160.283 110.272 159.219 110.272C157.973 110.272 157.231 109.348 157.231 107.948C157.231 106.548 157.973 105.624 159.219 105.624C160.283 105.624 161.165 106.478 161.165 107.808V108.074ZM161.123 111H162.285V102.18H161.123V106.212C160.815 105.386 160.073 104.714 158.925 104.714C157.105 104.714 156.027 106.142 156.027 107.948C156.027 109.74 157.105 111.168 158.925 111.168C160.073 111.168 160.815 110.51 161.123 109.684V111ZM178.364 108.074C178.364 109.418 177.482 110.272 176.418 110.272C175.172 110.272 174.43 109.348 174.43 107.948C174.43 106.548 175.172 105.624 176.418 105.624C177.482 105.624 178.364 106.478 178.364 107.808V108.074ZM178.322 111H179.484V102.18H178.322V106.212C178.014 105.386 177.272 104.714 176.124 104.714C174.304 104.714 173.226 106.142 173.226 107.948C173.226 109.74 174.304 111.168 176.124 111.168C177.272 111.168 178.014 110.51 178.322 109.684V111ZM183.422 106.786C183.618 106.17 184.248 105.638 185.214 105.638C186.096 105.638 186.404 106.086 186.404 106.506V107.024L184.528 107.458C183.1 107.78 182.134 108.256 182.134 109.362C182.134 110.44 182.946 111.126 184.08 111.126C185.2 111.126 186.11 110.552 186.418 109.782C186.474 110.538 187.118 111.14 187.93 111.14C188.28 111.14 188.602 111.042 188.938 110.804L188.868 109.936C188.686 110.104 188.406 110.216 188.154 110.216C187.832 110.216 187.496 110.02 187.496 109.53V106.548C187.496 105.316 186.628 104.714 185.242 104.714C183.8 104.714 182.806 105.442 182.386 106.408L183.422 106.786ZM186.404 108.536C186.404 109.432 185.438 110.244 184.36 110.244C183.66 110.244 183.296 109.824 183.296 109.278C183.296 108.606 183.884 108.368 184.808 108.144L186.404 107.766V108.536ZM195.928 108.942C195.592 109.81 195.004 110.258 193.982 110.258C192.848 110.258 191.896 109.418 191.896 108.088H196.852V107.724C196.852 106.142 195.872 104.714 193.898 104.714C192.092 104.714 190.748 106.1 190.748 108.032C190.748 109.908 192.092 111.168 193.94 111.168C195.368 111.168 196.348 110.552 196.824 109.474L195.928 108.942ZM191.938 107.332C192.078 106.422 192.792 105.624 193.898 105.624C195.06 105.624 195.676 106.436 195.732 107.332H191.938ZM200.075 107.584C200.075 106.478 200.439 105.666 201.111 105.666C201.797 105.666 201.965 106.212 201.965 106.926V111H203.029V107.584C203.029 106.478 203.407 105.666 204.065 105.666C204.751 105.666 204.919 106.212 204.919 106.926V111H205.983V106.45C205.983 105.414 205.437 104.714 204.583 104.714C203.743 104.714 203.183 105.358 202.987 106.114C202.889 105.26 202.385 104.714 201.629 104.714C200.761 104.714 200.257 105.386 200.075 106.156V104.882H199.011V111H200.075V107.584ZM214.359 107.948C214.359 106.044 212.931 104.714 211.097 104.714C209.277 104.714 207.849 106.044 207.849 107.948C207.849 109.838 209.277 111.168 211.097 111.168C212.931 111.168 214.359 109.838 214.359 107.948ZM209.067 107.948C209.067 106.562 209.851 105.638 211.097 105.638C212.357 105.638 213.141 106.562 213.141 107.948C213.141 109.32 212.357 110.244 211.097 110.244C209.851 110.244 209.067 109.32 209.067 107.948ZM218.072 107.696C218.072 106.492 218.842 105.694 219.878 105.694C220.886 105.694 221.418 106.338 221.418 107.36V111H222.58V107.206C222.58 105.778 221.894 104.714 220.27 104.714C219.192 104.714 218.366 105.358 218.072 106.128V104.882H216.91V111H218.072V107.696Z" fill="black"/>
<path d="M138.046 20.722C139.04 20.722 139.502 21.31 139.502 22.122C139.502 22.416 139.474 22.584 139.432 22.696L140.51 22.388C140.552 22.276 140.566 22.094 140.566 21.842C140.566 20.764 139.81 19.714 138.41 19.714C137.066 19.714 136.254 20.666 135.96 21.646V19.882H134.798V26H135.96V23.396C135.96 21.982 136.898 20.722 138.046 20.722ZM144.224 21.786C144.42 21.17 145.05 20.638 146.016 20.638C146.898 20.638 147.206 21.086 147.206 21.506V22.024L145.33 22.458C143.902 22.78 142.936 23.256 142.936 24.362C142.936 25.44 143.748 26.126 144.882 26.126C146.002 26.126 146.912 25.552 147.22 24.782C147.276 25.538 147.92 26.14 148.732 26.14C149.082 26.14 149.404 26.042 149.74 25.804L149.67 24.936C149.488 25.104 149.208 25.216 148.956 25.216C148.634 25.216 148.298 25.02 148.298 24.53V21.548C148.298 20.316 147.43 19.714 146.044 19.714C144.602 19.714 143.608 20.442 143.188 21.408L144.224 21.786ZM147.206 23.536C147.206 24.432 146.24 25.244 145.162 25.244C144.462 25.244 144.098 24.824 144.098 24.278C144.098 23.606 144.686 23.368 145.61 23.144L147.206 22.766V23.536ZM156.365 23.074C156.365 24.418 155.483 25.272 154.419 25.272C153.173 25.272 152.431 24.348 152.431 22.948C152.431 21.548 153.173 20.624 154.419 20.624C155.483 20.624 156.365 21.478 156.365 22.808V23.074ZM156.323 26H157.485V17.18H156.323V21.212C156.015 20.386 155.273 19.714 154.125 19.714C152.305 19.714 151.227 21.142 151.227 22.948C151.227 24.74 152.305 26.168 154.125 26.168C155.273 26.168 156.015 25.51 156.323 24.684V26ZM170.233 22.808C170.233 21.478 171.115 20.624 172.179 20.624C173.425 20.624 174.167 21.548 174.167 22.948C174.167 24.348 173.425 25.272 172.179 25.272C171.115 25.272 170.233 24.418 170.233 23.074V22.808ZM170.275 24.684C170.583 25.51 171.325 26.168 172.473 26.168C174.293 26.168 175.371 24.74 175.371 22.948C175.371 21.142 174.293 19.714 172.473 19.714C171.325 19.714 170.583 20.386 170.275 21.212V19.882H169.113V28.352H170.275V24.684ZM181.044 20.722C182.038 20.722 182.5 21.31 182.5 22.122C182.5 22.416 182.472 22.584 182.43 22.696L183.508 22.388C183.55 22.276 183.564 22.094 183.564 21.842C183.564 20.764 182.808 19.714 181.408 19.714C180.064 19.714 179.252 20.666 178.958 21.646V19.882H177.796V26H178.958V23.396C178.958 21.982 179.896 20.722 181.044 20.722ZM192.36 22.948C192.36 21.044 190.932 19.714 189.098 19.714C187.278 19.714 185.85 21.044 185.85 22.948C185.85 24.838 187.278 26.168 189.098 26.168C190.932 26.168 192.36 24.838 192.36 22.948ZM187.068 22.948C187.068 21.562 187.852 20.638 189.098 20.638C190.358 20.638 191.142 21.562 191.142 22.948C191.142 24.32 190.358 25.244 189.098 25.244C187.852 25.244 187.068 24.32 187.068 22.948ZM198.215 18.426H199.797V16.928H198.215V18.426ZM196.871 28.52C198.411 28.52 199.671 27.554 199.671 25.832V19.882H195.499V20.792H198.509V25.72C198.509 26.938 197.697 27.498 196.843 27.498C195.891 27.498 195.345 26.952 194.925 25.986L194.239 26.91C194.589 27.806 195.597 28.52 196.871 28.52ZM208.327 23.942C207.991 24.81 207.403 25.258 206.381 25.258C205.247 25.258 204.295 24.418 204.295 23.088H209.251V22.724C209.251 21.142 208.271 19.714 206.297 19.714C204.491 19.714 203.147 21.1 203.147 23.032C203.147 24.908 204.491 26.168 206.339 26.168C207.767 26.168 208.747 25.552 209.223 24.474L208.327 23.942ZM204.337 22.332C204.477 21.422 205.191 20.624 206.297 20.624C207.459 20.624 208.075 21.436 208.131 22.332H204.337ZM216.885 23.858C216.647 24.642 216.059 25.216 215.107 25.216C213.917 25.216 213.105 24.348 213.105 22.948C213.105 21.534 213.917 20.666 215.135 20.666C216.017 20.666 216.563 21.212 216.815 21.926L217.781 21.366C217.375 20.414 216.507 19.714 215.121 19.714C213.203 19.714 211.887 21.058 211.887 22.948C211.887 24.852 213.203 26.168 215.079 26.168C216.605 26.168 217.501 25.342 217.851 24.334L216.885 23.858ZM219.73 20.204V21.072H221.718V23.536C221.718 25.272 222.95 26.168 224.476 26.168C225.722 26.168 226.8 25.398 227.15 24.53L226.534 23.648C226.1 24.656 225.442 25.16 224.532 25.16C223.678 25.16 222.852 24.6 222.852 23.438V21.072H226.282V20.204H222.852V17.838L221.718 18.188V20.204H219.73Z" fill="black"/>
<path d="M270.033 57.8075C270.033 56.4775 270.915 55.6235 271.979 55.6235C273.225 55.6235 273.967 56.5475 273.967 57.9475C273.967 59.3475 273.225 60.2715 271.979 60.2715C270.915 60.2715 270.033 59.4175 270.033 58.0735V57.8075ZM270.075 59.6835C270.383 60.5095 271.125 61.1675 272.273 61.1675C274.093 61.1675 275.171 59.7395 275.171 57.9475C275.171 56.1415 274.093 54.7135 272.273 54.7135C271.125 54.7135 270.383 55.3855 270.075 56.2115V54.8815H268.913V63.3515H270.075V59.6835ZM278.423 56.7855C278.619 56.1695 279.249 55.6375 280.215 55.6375C281.097 55.6375 281.405 56.0855 281.405 56.5055V57.0235L279.529 57.4575C278.101 57.7795 277.135 58.2555 277.135 59.3615C277.135 60.4395 277.947 61.1255 279.081 61.1255C280.201 61.1255 281.111 60.5515 281.419 59.7815C281.475 60.5375 282.119 61.1395 282.931 61.1395C283.281 61.1395 283.603 61.0415 283.939 60.8035L283.869 59.9355C283.687 60.1035 283.407 60.2155 283.155 60.2155C282.833 60.2155 282.497 60.0195 282.497 59.5295V56.5475C282.497 55.3155 281.629 54.7135 280.243 54.7135C278.801 54.7135 277.807 55.4415 277.387 56.4075L278.423 56.7855ZM281.405 58.5355C281.405 59.4315 280.439 60.2435 279.361 60.2435C278.661 60.2435 278.297 59.8235 278.297 59.2775C278.297 58.6055 278.885 58.3675 279.809 58.1435L281.405 57.7655V58.5355ZM285.133 55.2035V56.0715H287.121V58.5355C287.121 60.2715 288.353 61.1675 289.879 61.1675C291.125 61.1675 292.203 60.3975 292.553 59.5295L291.937 58.6475C291.503 59.6555 290.845 60.1595 289.935 60.1595C289.081 60.1595 288.255 59.5995 288.255 58.4375V56.0715H291.685V55.2035H288.255V52.8375L287.121 53.1875V55.2035H285.133ZM299.486 58.8575C299.248 59.6415 298.66 60.2155 297.708 60.2155C296.518 60.2155 295.706 59.3475 295.706 57.9475C295.706 56.5335 296.518 55.6655 297.736 55.6655C298.618 55.6655 299.164 56.2115 299.416 56.9255L300.382 56.3655C299.976 55.4135 299.108 54.7135 297.722 54.7135C295.804 54.7135 294.488 56.0575 294.488 57.9475C294.488 59.8515 295.804 61.1675 297.68 61.1675C299.206 61.1675 300.102 60.3415 300.452 59.3335L299.486 58.8575ZM304.488 57.6955C304.488 56.4915 305.244 55.6935 306.28 55.6935C307.288 55.6935 307.82 56.3375 307.82 57.3595V60.9995H308.982V57.2055C308.982 55.7775 308.296 54.7135 306.686 54.7135C305.608 54.7135 304.768 55.3575 304.488 56.1275V52.1795H303.326V60.9995H304.488V57.6955ZM316.727 58.9415C316.391 59.8095 315.803 60.2575 314.781 60.2575C313.647 60.2575 312.695 59.4175 312.695 58.0875H317.651V57.7235C317.651 56.1415 316.671 54.7135 314.697 54.7135C312.891 54.7135 311.547 56.0995 311.547 58.0315C311.547 59.9075 312.891 61.1675 314.739 61.1675C316.167 61.1675 317.147 60.5515 317.623 59.4735L316.727 58.9415ZM312.737 57.3315C312.877 56.4215 313.591 55.6235 314.697 55.6235C315.859 55.6235 316.475 56.4355 316.531 57.3315H312.737ZM320.175 59.7675C320.721 60.6355 321.981 61.1675 323.339 61.1675C324.893 61.1675 326.055 60.4535 326.055 59.3055C326.055 58.3255 325.313 57.8355 324.375 57.6395L322.667 57.2615C321.995 57.1075 321.673 56.8835 321.673 56.4355C321.673 55.9315 322.289 55.6235 323.073 55.6235C323.941 55.6235 324.697 55.9875 325.047 56.6175L325.831 55.9735C325.327 55.1895 324.361 54.7135 323.073 54.7135C321.659 54.7135 320.567 55.4415 320.567 56.5195C320.567 57.5555 321.365 58.0175 322.415 58.2415L323.913 58.5635C324.571 58.7035 324.935 58.9275 324.935 59.3895C324.935 60.0055 324.291 60.2715 323.325 60.2715C322.345 60.2715 321.337 59.8235 320.889 58.9975L320.175 59.7675Z" fill="black"/>
</svg>
