<svg width="766" height="6" viewBox="0 0 766 6" fill="none" xmlns="http://www.w3.org/2000/svg">
<path fill-rule="evenodd" clip-rule="evenodd" d="M144.5 1C140.886 1 140.886 5 137.273 5C133.66 5 133.66 1 130.047 1C126.434 1 126.434 5 122.821 5C119.208 5 119.208 1 115.595 1C111.982 1 111.982 5 108.37 5C104.757 5 104.757 1 101.145 1C97.5323 1 97.5323 5 93.9199 5C90.3081 5 90.3081 1 86.696 1C83.0835 1 83.0835 5 79.4708 5C75.8584 5 75.8584 1 72.2457 1C68.6333 1 68.6333 5 65.0209 5C61.4084 5 61.4084 1 57.7963 1C54.1836 1 54.1836 5 50.5709 5C46.9588 5 46.9588 1 43.3463 1C39.7339 1 39.7339 5 36.1212 5C32.5088 5 32.5088 1 28.8967 1C25.2846 1 25.2846 5 21.6724 5C18.0603 5 18.0603 1 14.4482 1C10.8361 1 10.8361 5 7.22424 5C3.61212 5 3.61212 1 0 1C3.61212 1 3.61212 5 7.22424 5C10.8361 5 10.8361 1 14.4482 1C18.0603 1 18.0603 5 21.6724 5C25.2846 5 25.2846 1 28.8967 1C32.5088 1 32.5088 5 36.1212 5C39.7339 5 39.7339 1 43.3463 1C46.9588 1 46.9588 5 50.5709 5C54.1836 5 54.1836 1 57.7963 1C61.4084 1 61.4084 5 65.0209 5C68.6333 5 68.6333 1 72.2457 1C75.8584 1 75.8584 5 79.4708 5C83.0835 5 83.0835 1 86.696 1C90.3081 1 90.3081 5 93.9199 5C97.5323 5 97.5323 1 101.145 1C104.757 1 104.757 5 108.37 5C111.982 5 111.982 1 115.595 1C119.208 1 119.208 5 122.821 5C126.434 5 126.434 1 130.047 1C133.66 1 133.66 5 137.273 5C140.886 5 140.886 1 144.5 1C148.112 1 148.112 5 151.724 5C155.336 5 155.336 1 158.948 1C162.56 1 162.56 5 166.172 5C169.784 5 169.784 1 173.397 1C177.009 1 177.009 5 180.621 5C184.234 5 184.234 1 187.847 1C191.459 1 191.459 5 195.071 5C198.684 5 198.684 1 202.296 1C205.909 1 205.909 5 209.521 5C213.133 5 213.133 1 216.746 1C220.358 1 220.358 5 223.971 5C227.584 5 227.584 1 231.196 1C234.808 1 234.808 5 238.42 5C242.032 5 242.032 1 245.644 1C249.257 1 249.257 5 252.87 5C256.482 5 256.482 1 260.095 1C263.708 1 263.708 5 267.321 5C270.934 5 270.934 1 274.547 1C278.16 1 278.16 5 281.773 5C285.386 5 285.386 1 289 1C285.386 1 285.386 5 281.773 5C278.16 5 278.16 1 274.547 1C270.934 1 270.934 5 267.321 5C263.708 5 263.708 1 260.095 1C256.482 1 256.482 5 252.87 5C249.257 5 249.257 1 245.644 1C242.032 1 242.032 5 238.42 5C234.808 5 234.808 1 231.196 1C227.584 1 227.584 5 223.971 5C220.358 5 220.358 1 216.746 1C213.133 1 213.133 5 209.521 5C205.909 5 205.909 1 202.296 1C198.684 1 198.684 5 195.071 5C191.459 5 191.459 1 187.847 1C184.234 1 184.234 5 180.621 5C177.009 5 177.009 1 173.397 1C169.784 1 169.784 5 166.172 5C162.56 5 162.56 1 158.948 1C155.336 1 155.336 5 151.724 5C148.112 5 148.112 1 144.5 1Z" stroke="#231F20" stroke-opacity="0.3"/>
<path fill-rule="evenodd" clip-rule="evenodd" d="M433.5 1C429.886 1 429.886 5 426.273 5C422.66 5 422.66 1 419.047 1C415.434 1 415.434 5 411.821 5C408.208 5 408.208 1 404.595 1C400.982 1 400.982 5 397.37 5C393.757 5 393.757 1 390.145 1C386.532 1 386.532 5 382.92 5C379.308 5 379.308 1 375.696 1C372.084 1 372.084 5 368.471 5C364.858 5 364.858 1 361.246 1C357.633 1 357.633 5 354.021 5C350.408 5 350.408 1 346.796 1C343.184 1 343.184 5 339.571 5C335.959 5 335.959 1 332.346 1C328.734 1 328.734 5 325.121 5C321.509 5 321.509 1 317.897 1C314.285 1 314.285 5 310.672 5C307.06 5 307.06 1 303.448 1C299.836 1 299.836 5 296.224 5C292.612 5 292.612 1 289 1C292.612 1 292.612 5 296.224 5C299.836 5 299.836 1 303.448 1C307.06 1 307.06 5 310.672 5C314.285 5 314.285 1 317.897 1C321.509 1 321.509 5 325.121 5C328.734 5 328.734 1 332.346 1C335.959 1 335.959 5 339.571 5C343.184 5 343.184 1 346.796 1C350.408 1 350.408 5 354.021 5C357.633 5 357.633 1 361.246 1C364.858 1 364.858 5 368.471 5C372.084 5 372.084 1 375.696 1C379.308 1 379.308 5 382.92 5C386.532 5 386.532 1 390.145 1C393.757 1 393.757 5 397.37 5C400.982 5 400.982 1 404.595 1C408.208 1 408.208 5 411.821 5C415.434 5 415.434 1 419.047 1C422.66 1 422.66 5 426.273 5C429.886 5 429.886 1 433.5 1C437.112 1 437.112 5 440.724 5C444.336 5 444.336 1 447.948 1C451.56 1 451.56 5 455.172 5C458.784 5 458.784 1 462.397 1C466.009 1 466.009 5 469.621 5C473.234 5 473.234 1 476.847 1C480.459 1 480.459 5 484.071 5C487.684 5 487.684 1 491.296 1C494.909 1 494.909 5 498.521 5C502.133 5 502.133 1 505.746 1C509.358 1 509.358 5 512.971 5C516.584 5 516.584 1 520.196 1C523.808 1 523.808 5 527.42 5C531.032 5 531.032 1 534.644 1C538.257 1 538.257 5 541.87 5C545.482 5 545.482 1 549.095 1C552.708 1 552.708 5 556.321 5C559.934 5 559.934 1 563.547 1C567.16 1 567.16 5 570.773 5C574.386 5 574.386 1 578 1C574.386 1 574.386 5 570.773 5C567.16 5 567.16 1 563.547 1C559.934 1 559.934 5 556.321 5C552.708 5 552.708 1 549.095 1C545.482 1 545.482 5 541.87 5C538.257 5 538.257 1 534.644 1C531.032 1 531.032 5 527.42 5C523.808 5 523.808 1 520.196 1C516.584 1 516.584 5 512.971 5C509.358 5 509.358 1 505.746 1C502.133 1 502.133 5 498.521 5C494.909 5 494.909 1 491.296 1C487.684 1 487.684 5 484.071 5C480.459 5 480.459 1 476.847 1C473.234 1 473.234 5 469.621 5C466.009 5 466.009 1 462.397 1C458.784 1 458.784 5 455.172 5C451.56 5 451.56 1 447.948 1C444.336 1 444.336 5 440.724 5C437.112 5 437.112 1 433.5 1Z" stroke="#231F20" stroke-opacity="0.3"/>
<path fill-rule="evenodd" clip-rule="evenodd" d="M722.5 1C718.886 1 718.886 5 715.273 5C711.66 5 711.66 1 708.047 1C704.434 1 704.434 5 700.821 5C697.208 5 697.208 1 693.595 1C689.982 1 689.982 5 686.37 5C682.757 5 682.757 1 679.145 1C675.532 1 675.532 5 671.92 5C668.308 5 668.308 1 664.696 1C661.084 1 661.084 5 657.471 5C653.858 5 653.858 1 650.246 1C646.633 1 646.633 5 643.021 5C639.408 5 639.408 1 635.796 1C632.184 1 632.184 5 628.571 5C624.959 5 624.959 1 621.346 1C617.734 1 617.734 5 614.121 5C610.509 5 610.509 1 606.897 1C603.285 1 603.285 5 599.672 5C596.06 5 596.06 1 592.448 1C588.836 1 588.836 5 585.224 5C581.612 5 581.612 1 578 1C581.612 1 581.612 5 585.224 5C588.836 5 588.836 1 592.448 1C596.06 1 596.06 5 599.672 5C603.285 5 603.285 1 606.897 1C610.509 1 610.509 5 614.121 5C617.734 5 617.734 1 621.346 1C624.959 1 624.959 5 628.571 5C632.184 5 632.184 1 635.796 1C639.408 1 639.408 5 643.021 5C646.633 5 646.633 1 650.246 1C653.858 1 653.858 5 657.471 5C661.084 5 661.084 1 664.696 1C668.308 1 668.308 5 671.92 5C675.532 5 675.532 1 679.145 1C682.757 1 682.757 5 686.37 5C689.982 5 689.982 1 693.595 1C697.208 1 697.208 5 700.821 5C704.434 5 704.434 1 708.047 1C711.66 1 711.66 5 715.273 5C718.886 5 718.886 1 722.5 1C726.112 1 726.112 5 729.724 5C733.336 5 733.336 1 736.948 1C740.56 1 740.56 5 744.172 5C747.784 5 747.784 1 751.397 1C755.009 1 755.009 5 758.621 5C762.234 5 762.234 1 765.847 1C762.234 1 762.234 5 758.621 5C755.009 5 755.009 1 751.397 1C747.784 1 747.784 5 744.172 5C740.56 5 740.56 1 736.948 1C733.336 1 733.336 5 729.724 5C726.112 5 726.112 1 722.5 1Z" stroke="#231F20" stroke-opacity="0.3"/>
</svg>
